<svg xmlns="http://www.w3.org/2000/svg" viewBox="233 -128 100 100"><defs><style>.a{fill:none;}</style></defs><g transform="translate(233 -128)"><rect class="a" width="100" height="100"/><path class="a" d="M0,0H23a0,0,0,0,1,0,0V51.5A11.5,11.5,0,0,1,11.5,63h0A11.5,11.5,0,0,1,0,51.5V0A0,0,0,0,1,0,0Z" transform="translate(39 19)"/><path class="a" d="M0,0H23a0,0,0,0,1,0,0V51.5A11.5,11.5,0,0,1,11.5,63h0A11.5,11.5,0,0,1,0,51.5V0A0,0,0,0,1,0,0Z" transform="translate(39 19)"/><path d="M-204.1,199.149a4.5,4.5,0,0,1,0-6.364l22.863-22.863H-228.5a4.5,4.5,0,0,1-4.5-4.5,4.5,4.5,0,0,1,4.5-4.5h47.776L-204.1,137.546a4.5,4.5,0,0,1,0-6.364,4.5,4.5,0,0,1,6.364,0l30.6,30.6a4.487,4.487,0,0,1,1.314,3.38,4.487,4.487,0,0,1-1.314,3.38l-30.6,30.6a4.486,4.486,0,0,1-3.182,1.318A4.486,4.486,0,0,1-204.1,199.149Z" transform="translate(251.167 -114.57)"/></g></svg>