<svg xmlns="http://www.w3.org/2000/svg" viewBox="403 -128 100 100"><defs><style>.a{fill:none;}</style></defs><g transform="translate(403 -128)"><rect class="a" width="100" height="100"/><path class="a" d="M0,0H23a0,0,0,0,1,0,0V51.5A11.5,11.5,0,0,1,11.5,63h0A11.5,11.5,0,0,1,0,51.5V0A0,0,0,0,1,0,0Z" transform="translate(39 19)"/><path class="a" d="M0,0H23a0,0,0,0,1,0,0V51.5A11.5,11.5,0,0,1,11.5,63h0A11.5,11.5,0,0,1,0,51.5V0A0,0,0,0,1,0,0Z" transform="translate(39 19)"/><rect width="64.28" height="9" rx="5" ry="5" transform="translate(18.167 46.353)"/><rect width="52.28" height="9" rx="5" ry="5" transform="translate(19.248 44.43) rotate(45)"/><rect width="52.28" height="9" rx="5" ry="5" transform="translate(12.884 50.398) rotate(-45)"/></g></svg>