<svg xmlns="http://www.w3.org/2000/svg" viewBox="743 140 100 100"><defs><style>.a{fill:none;}</style></defs><g transform="translate(743 140)"><rect class="a" width="100" height="100"/><g transform="translate(6.788 7.569)"><path class="a" d="M47,46.1h0Z" transform="translate(-1.863 -1.636)"/><path class="a" d="M42.8,73.276v0Z" transform="translate(-1.696 -2.696)"/><path d="M58.8,11.3c-5.281,6.145-9.314,6.625-9.314,6.625l-.288,9.7c7.777,2.881,13.058-3.265,13.058-3.265,4.7,3.073,9.794-2.881,9.794-2.881,3.073,1.728,5.761-1.536,5.761-1.536,5.953,2.881,10.562-2.016,10.562-2.016C63.219,11.779,64.083,5.153,58.8,11.3Z" transform="translate(-1.951 -0.153)"/><path d="M39.375,27.722l-.288-9.7s-3.937-.48-9.314-6.625c-5.281-6.145-4.417.48-29.574,6.625,0,0,4.609,4.9,10.562,2.016,0,0,2.592,3.361,5.761,1.536,0,0,5.089,5.953,9.794,2.977C26.317,24.457,31.6,30.506,39.375,27.722Z" transform="translate(0 -0.157)"/><path d="M45.924,65.885h0l.192-2.3c-.672-.192-1.344-.288-2.016-.48l.192,3.841A9.513,9.513,0,0,1,45.924,65.885Z" transform="translate(-1.748 -2.313)"/><path d="M47.258,16.138a5.724,5.724,0,0,0,3.457-5.281A5.819,5.819,0,0,0,44.857,5,5.88,5.88,0,0,0,39,10.857a5.934,5.934,0,0,0,3.457,5.281L43.321,43.7a28.856,28.856,0,0,1,3.073-.672l.192-7.3v-.288c0-.192.1-.288.1-.48Z" transform="translate(-1.545 0)"/><path d="M44.4,72.456v.96a2.641,2.641,0,0,0,.864.768c.192,0,.288.1.48.192l.1-2.977c-.1,0-.1.1-.192,0A4.065,4.065,0,0,0,44.4,72.456Z" transform="translate(-1.76 -2.644)"/><path d="M46.2,57.745l.192-6.145c-.768.1-1.536.288-2.208.384-.192,0-.288.1-.48.1l.192,4.993C44.66,57.265,45.428,57.553,46.2,57.745Z" transform="translate(-1.732 -1.855)"/><path d="M45.56,79.08h0a8.92,8.92,0,0,0-.96-.48l.288,4.993h.768l.1-4.513H45.56Z" transform="translate(-1.768 -2.931)"/><path d="M43.448,78.08c-.192-.1-.288-.1-.384-.192l-.576-.288c-.288.288-.384.672-.192.864a.353.353,0,0,0,.288.1c.192,0,.288-.1.48-.192a.094.094,0,0,0,.1-.1A1.189,1.189,0,0,1,43.448,78.08Z" transform="translate(-1.672 -2.891)"/><path d="M33.958,48.075c.1-.1.192-.1.192-.192h.1a4.257,4.257,0,0,1,.576-.48,7.615,7.615,0,0,1,1.536-.768c.192-.1.384-.1.576-.192a8.918,8.918,0,0,1,1.248-.384c.192-.1.384-.1.576-.192.768-.192,1.536-.384,2.208-.576-.384-.1-.672-.1-1.056-.192l-2.881-.576c-.48-.1-.864-.192-1.344-.288l-.672-.192-.48-.192a3.172,3.172,0,0,1-2.112-1.824,2.587,2.587,0,0,1,.288-1.92,3.338,3.338,0,0,1,1.44-1.344,2.825,2.825,0,0,0,4.609.288c.576-.672,2.3-1.536,2.3-2.5,0-.864-1.632-1.632-2.112-2.208A2.549,2.549,0,0,0,36.647,33a2.871,2.871,0,0,0-2.208,1.056h-.384a5.34,5.34,0,0,0-2.016.576,3.555,3.555,0,0,0-1.056.768,7.241,7.241,0,0,0-2.112,2.689,7.147,7.147,0,0,0-.384,5.377,6.93,6.93,0,0,0,1.92,2.785c.192.192.48.384.672.576a1.93,1.93,0,0,0,.768.384,10.669,10.669,0,0,0,1.536.672C33.574,47.979,33.766,47.979,33.958,48.075Z" transform="translate(-1.112 -1.115)"/><path d="M58.158,35.4c-.576-.576-1.056-.672-1.056-.768a5.875,5.875,0,0,0-2.016-.576H54.7A2.871,2.871,0,0,0,52.493,33,3.283,3.283,0,0,0,50,34.344c-.384.576-2.112,1.344-2.112,2.208,0,.96,1.824,1.92,2.3,2.5A2.871,2.871,0,0,0,52.4,40.105a3.1,3.1,0,0,0,2.4-1.344,3.338,3.338,0,0,1,1.44,1.344,2.662,2.662,0,0,1,.288,1.92,2.956,2.956,0,0,1-2.112,1.824l-.48.192-.672.192c-.48.1-.864.192-1.344.288l-2.881.576c-.48.1-.864.192-1.344.288-.384.1-.768.1-1.056.192h-.1c-.96.192-1.824.384-2.785.576a3.411,3.411,0,0,1-.96.192c-1.152.288-2.208.48-3.361.864a12.16,12.16,0,0,0-1.728.576,16.894,16.894,0,0,0-1.92.864,6,6,0,0,0-1.728,1.536,4.929,4.929,0,0,0-.96,2.3,5.522,5.522,0,0,0,1.44,4.417,6.288,6.288,0,0,0,1.728,1.44,6.619,6.619,0,0,0,2.016.768l3.457.864c.192,0,.288.1.48.1,1.728.384,3.361.768,4.993,1.152l1.152.288a2.033,2.033,0,0,1,.672.288c.1.1.288.192.384.288a1.185,1.185,0,0,1,.384.768,2.036,2.036,0,0,1-.96,1.728c-.864.48-1.632.96-2.5,1.44s-1.632.96-2.4,1.44l-.576.384h-.1l-.1.1-.1.1H42.6c-.192.192-.288.192-.48.384a4.065,4.065,0,0,0-.48.672,1.548,1.548,0,0,0-.384.672,1.78,1.78,0,0,0-.192.672,6.273,6.273,0,0,0,0,1.344A4.161,4.161,0,0,0,42.8,74.48a3,3,0,0,0,.96.48,9.991,9.991,0,0,1,2.016.96,3.8,3.8,0,0,1,.672.48l.192.192a.577.577,0,0,0,.384.1.353.353,0,0,0,.288-.1c.192-.192.1-.576-.192-.864a2.2,2.2,0,0,0-.672-.576c-.1,0-.1-.1-.192-.1A16.541,16.541,0,0,0,44.236,73.9a3.051,3.051,0,0,1-1.824-2.3v-.576c.1-.96.96-1.728,2.208-2.4.768-.384,1.44-.864,2.3-1.248a.094.094,0,0,0,.1-.1c.384-.192.864-.48,1.248-.672.48-.288.864-.384,1.44-.768a3.8,3.8,0,0,0,1.92-3.457,3.084,3.084,0,0,0-.96-2.112,3.449,3.449,0,0,0-.96-.672,3.411,3.411,0,0,0-.864-.384c-.576-.192-1.248-.288-1.824-.48-1.536-.48-3.169-.96-4.8-1.44-.1,0-.1,0-.192-.1-1.056-.288-2.112-.672-3.169-.864a2.516,2.516,0,0,1-1.248-.576,4.127,4.127,0,0,1-.96-.864,2.873,2.873,0,0,1-.672-2.208,1.963,1.963,0,0,1,.48-.864c.1-.1.192-.288.384-.288a2.988,2.988,0,0,1,.576-.384c.288-.192.864-.288,1.248-.48a8.991,8.991,0,0,1,1.536-.384c1.056-.288,2.208-.48,3.265-.672,2.112-.384,4.225-.672,6.241-.96,1.056-.192,2.016-.288,2.977-.384a7.412,7.412,0,0,1,1.44-.192l.672-.1a3.563,3.563,0,0,1,.864-.192,4.411,4.411,0,0,0,1.536-.672c.288-.1.48-.288.768-.384.192-.192.48-.384.672-.576a6.1,6.1,0,0,0,1.92-2.785,7.147,7.147,0,0,0-.384-5.377A7.57,7.57,0,0,0,58.158,35.4Z" transform="translate(-1.307 -1.115)"/></g></g></svg>