<svg xmlns="http://www.w3.org/2000/svg" viewBox="1083 140 100 100"><defs><style>.a{fill:none;}.b{stroke:rgba(0,0,0,0);stroke-width:1px;}</style></defs><g transform="translate(1083 140)"><rect class="a" width="100" height="100"/><path class="b" d="M60-31.875q0,10.139-8.785,17.257T30-7.5a38.886,38.886,0,0,1-5.069-.347Q17.083,0,8.75,0A1.205,1.205,0,0,1,7.569-.764a1.258,1.258,0,0,1,.278-1.389A15.2,15.2,0,0,0,8.924-3.4a20.4,20.4,0,0,0,1.875-3.4,17.514,17.514,0,0,0,1.563-5.347A26.474,26.474,0,0,1,3.3-20.729,20.353,20.353,0,0,1,0-31.875Q0-42.014,8.785-49.132T30-56.25q12.431,0,21.215,7.118T60-31.875Z" transform="translate(20 78)"/></g></svg>