<svg xmlns="http://www.w3.org/2000/svg" viewBox="1083 274 100 100"><defs><style>.a{fill:none;}.b{fill:#fff;}</style></defs><g transform="translate(1083 274)"><rect class="a" width="100" height="100"/><g transform="translate(19.633 17.152)"><path d="M54.993,2H6.074A4.073,4.073,0,0,0,2,6.076V59.069a4.074,4.074,0,0,0,4.074,4.076H54.993a4.075,4.075,0,0,0,4.076-4.076V6.076A4.075,4.075,0,0,0,54.993,2Z" transform="translate(0 2.076)"/><circle class="b" cx="3.277" cy="3.277" r="3.277" transform="translate(13.167 23.271)"/><circle class="b" cx="3.277" cy="3.277" r="3.277" transform="translate(13.167 33.102)"/><circle class="b" cx="3.277" cy="3.277" r="3.277" transform="translate(13.167 42.933)"/><rect class="b" width="24.577" height="4.915" rx="1" ry="1" transform="translate(22.342 24.418)"/><rect class="b" width="24.577" height="4.915" rx="1" ry="1" transform="translate(22.342 34.249)"/><rect class="b" width="24.577" height="4.915" rx="1" ry="1" transform="translate(22.342 44.08)"/></g><rect class="b" width="39" height="11" rx="4" ry="4" transform="translate(31 17)"/><rect class="a" width="100" height="100"/><rect class="a" width="100" height="100"/><rect class="a" width="100" height="100"/><rect class="a" width="100" height="100"/><rect class="a" width="100" height="100"/><rect class="a" width="100" height="100"/><rect class="a" width="100" height="100"/><rect class="a" width="100" height="100"/><g transform="translate(19.633 17.152)"><circle class="b" cx="3.277" cy="3.277" r="3.277" transform="translate(13.167 23.271)"/><circle class="b" cx="3.277" cy="3.277" r="3.277" transform="translate(13.167 33.102)"/><circle class="b" cx="3.277" cy="3.277" r="3.277" transform="translate(13.167 42.933)"/><rect class="b" width="24.577" height="4.915" rx="1" ry="1" transform="translate(22.342 24.418)"/><rect class="b" width="24.577" height="4.915" rx="1" ry="1" transform="translate(22.342 34.249)"/><rect class="b" width="24.577" height="4.915" rx="1" ry="1" transform="translate(22.342 44.08)"/><rect width="33" height="8" rx="2.5" ry="2.5" transform="translate(14.367 -0.152)"/></g></g></svg>