<svg xmlns="http://www.w3.org/2000/svg" viewBox="233 408 100 100">
  <defs>
    <style>
      .cls-1 {
        fill: none;
      }

      .cls-2 {
        stroke: rgba(0,0,0,0);
        stroke-width: 1px;
      }
    </style>
  </defs>
  <g id="group-19" transform="translate(233 408)">
    <g id="group-11">
      <g id="group-5">
        <rect id="rectangle-1" class="cls-1" width="100" height="100"/>
      </g>
      <path id="creditcard" class="cls-2" d="M63.117-49.43v3.945H0V-49.43a3.792,3.792,0,0,1,1.169-2.776,3.792,3.792,0,0,1,2.776-1.169H59.172a3.792,3.792,0,0,1,2.776,1.169A3.792,3.792,0,0,1,63.117-49.43ZM0-33.651H63.117V-9.982a3.792,3.792,0,0,1-1.169,2.776,3.792,3.792,0,0,1-2.776,1.169H3.945A3.792,3.792,0,0,1,1.169-7.206,3.792,3.792,0,0,1,0-9.982Z" transform="translate(18.941 80.206)"/>
    </g>
    <g id="group-11-2" data-name="group-11">
      <g id="group-5-2" data-name="group-5">
        <rect id="rectangle-1-2" data-name="rectangle-1" class="cls-1" width="100" height="100"/>
      </g>
    </g>
    <g id="group-11-3" data-name="group-11">
      <g id="group-5-3" data-name="group-5">
        <rect id="rectangle-1-3" data-name="rectangle-1" class="cls-1" width="100" height="100"/>
      </g>
    </g>
    <g id="group-11-4" data-name="group-11">
      <g id="group-5-4" data-name="group-5">
        <rect id="rectangle-1-4" data-name="rectangle-1" class="cls-1" width="100" height="100"/>
      </g>
    </g>
    <g id="group-11-5" data-name="group-11">
      <g id="group-5-5" data-name="group-5">
        <rect id="rectangle-1-5" data-name="rectangle-1" class="cls-1" width="100" height="100"/>
      </g>
    </g>
    <g id="group-11-6" data-name="group-11">
      <g id="group-5-6" data-name="group-5">
        <rect id="rectangle-1-6" data-name="rectangle-1" class="cls-1" width="100" height="100"/>
      </g>
    </g>
    <g id="group-11-7" data-name="group-11">
      <g id="group-5-7" data-name="group-5">
        <rect id="rectangle-1-7" data-name="rectangle-1" class="cls-1" width="100" height="100"/>
      </g>
    </g>
    <g id="group-11-8" data-name="group-11">
      <g id="group-5-8" data-name="group-5">
        <rect id="rectangle-1-8" data-name="rectangle-1" class="cls-1" width="100" height="100"/>
      </g>
    </g>
  </g>
</svg>
