<svg xmlns="http://www.w3.org/2000/svg" viewBox="1083 -128 100 100"><defs><style>.a{fill:none;}</style></defs><g transform="translate(1083 -128)"><rect class="a" width="100" height="100"/><rect width="68.28" height="9" rx="5" ry="5" transform="translate(71.171 77.661) rotate(-135)"/><rect width="68.28" height="9" rx="5" ry="5" transform="translate(22.889 71.297) rotate(-45)"/><rect class="a" width="100" height="100"/><path class="a" d="M0,0H23a0,0,0,0,1,0,0V51.5A11.5,11.5,0,0,1,11.5,63h0A11.5,11.5,0,0,1,0,51.5V0A0,0,0,0,1,0,0Z" transform="translate(39 19)"/><path class="a" d="M0,0H23a0,0,0,0,1,0,0V51.5A11.5,11.5,0,0,1,11.5,63h0A11.5,11.5,0,0,1,0,51.5V0A0,0,0,0,1,0,0Z" transform="translate(39 19)"/></g></svg>