<svg xmlns="http://www.w3.org/2000/svg" viewBox="1253 140 100 100"><defs><style>.a{fill:none;}.b{stroke:rgba(0,0,0,0);stroke-width:1px;}</style></defs><g transform="translate(1253 140)"><rect class="a" width="100" height="100"/><path class="b" d="M51.244,38.512H2.484a1.161,1.161,0,0,1-1.219-1.219V29.979A1.161,1.161,0,0,1,2.484,28.76h48.76a1.161,1.161,0,0,1,1.219,1.219v7.314a1.161,1.161,0,0,1-1.219,1.219Zm.88-39.346-24.38,24.38a1.314,1.314,0,0,1-1.761,0L1.6-.835a1.227,1.227,0,0,1-.271-1.354,1.175,1.175,0,0,1,1.151-.745H15.893V-18.781a1.191,1.191,0,0,1,.339-.88,1.191,1.191,0,0,1,.88-.339h19.5a1.191,1.191,0,0,1,.88.339,1.191,1.191,0,0,1,.339.88V-2.934H51.244a1.175,1.175,0,0,1,1.151.745A1.227,1.227,0,0,1,52.124-.835Z" transform="translate(23 39.917)"/></g></svg>