<svg xmlns="http://www.w3.org/2000/svg" viewBox="913 408 100 100"><defs><style>.a{fill:none;}.b{stroke:rgba(0,0,0,0);stroke-width:1px;}</style></defs><g transform="translate(913 408)"><rect class="a" width="100" height="100"/><path class="b" d="M31.454,10.023,0-13.568a3.78,3.78,0,0,1,1.165-2.767A3.78,3.78,0,0,1,3.932-17.5H58.977a3.78,3.78,0,0,1,2.767,1.165,3.78,3.78,0,0,1,1.165,2.767Zm0,7.063L62.909-6.505V25.75a3.978,3.978,0,0,1-3.932,3.932H3.932a3.78,3.78,0,0,1-2.767-1.165A3.78,3.78,0,0,1,0,25.75V-6.505Z" transform="translate(18.546 44.569)"/><rect class="a" width="100" height="100"/><rect class="a" width="100" height="100"/><rect class="a" width="100" height="100"/><rect class="a" width="100" height="100"/><rect class="a" width="100" height="100"/><rect class="a" width="100" height="100"/><rect class="a" width="100" height="100"/></g></svg>