<svg xmlns="http://www.w3.org/2000/svg" viewBox="233 140 100 100"><defs><style>.a{fill:none;}</style></defs><g transform="translate(233 140)"><g transform="translate(12.038 21.814)"><path d="M73.583,55.817H3.808A4.11,4.11,0,0,1,0,52.042V13.661c0-1.733,1.743-3.2,3.808-3.2H18.383c.432,0,.718-.033,1.26-.7.249-.282.6-.731.981-1.215.491-.63,1.033-1.321,1.443-1.788l.645-.717c2.212-2.481,3.721-4.179,4.87-5.2C28.468.06,28.834,0,28.929,0H48.25c.154,0,.557.118,1.45.913a37.943,37.943,0,0,1,3.017,3.358c.82.969,1.743,2.061,2.783,3.226.447.522,1.069,1.22,1.553,1.758.93,1.037,1.435,1.209,1.728,1.209h14.8a3.012,3.012,0,0,1,3.164,3.2V52.042C76.747,54.124,75.326,55.817,73.583,55.817ZM19.342,31.833a19.381,19.381,0,0,0,19.02,17.013,19.072,19.072,0,0,0,12.451-4.635l.52-.474-2.527-2.546-.432.369a15.494,15.494,0,0,1-10.012,3.775,15.9,15.9,0,0,1-15.453-13.5h6.672l-8.459-10.9-8.181,10.9Zm27.8-3.934,8.474,11.184L63.82,27.9H57.375a20.677,20.677,0,0,0-5.984-12.448,19.3,19.3,0,0,0-13.029-4.969A19.028,19.028,0,0,0,25.934,15.1l-.527.439,2.519,2.546.469-.386a15.487,15.487,0,0,1,9.968-3.7A15.83,15.83,0,0,1,53.823,27.9Z" transform="translate(0 0)"/></g><rect class="a" width="100" height="100"/></g></svg>