<svg xmlns="http://www.w3.org/2000/svg" viewBox="743 140 100 100"><defs><style>.a{fill:none;}.b{stroke:rgba(0,0,0,0);stroke-width:1px;}</style></defs><g transform="translate(743 140)"><rect class="a" width="100" height="100"/><path class="b" d="M62.127,18.93,37.177,43.964a1.907,1.907,0,0,1-1.085.417,1.467,1.467,0,0,1-1.085-.417L10.057,18.93a36.772,36.772,0,0,1-8.3-11.849,19.534,19.534,0,0,1-1.5-11.1,16.809,16.809,0,0,1,4.8-8.929A18.747,18.747,0,0,1,18.819-18.62a18.747,18.747,0,0,1,13.768,5.674,20.548,20.548,0,0,1,3.5,4.673,20.548,20.548,0,0,1,3.5-4.673A18.611,18.611,0,0,1,53.365-18.7a18.884,18.884,0,0,1,13.852,5.758,16.555,16.555,0,0,1,4.756,8.929,19.823,19.823,0,0,1-1.544,11.1A36.772,36.772,0,0,1,62.127,18.93Z" transform="translate(13.9 37.208)"/></g></svg>