<svg xmlns="http://www.w3.org/2000/svg" viewBox="573 274 100 100"><defs><style>.a{fill:none;}.b{stroke:rgba(0,0,0,0);stroke-width:1px;}</style></defs><g transform="translate(573 274)"><rect class="a" width="100" height="100"/><path class="b" d="M31.472-20a30.325,30.325,0,0,1,22.256,9.216,30.325,30.325,0,0,1,9.216,22.256,30.325,30.325,0,0,1-9.216,22.256,30.325,30.325,0,0,1-22.256,9.216A30.325,30.325,0,0,1,9.216,33.728,30.325,30.325,0,0,1,0,11.472,30.325,30.325,0,0,1,9.216-10.784,30.325,30.325,0,0,1,31.472-20ZM45.387,25.387,49.1,21.671,36.28,8.849,31.472-12.132H26.227v23.6a5.058,5.058,0,0,0,1.53,3.715,8.517,8.517,0,0,0,.874.729Z" transform="translate(18.528 38)"/></g></svg>