<svg xmlns="http://www.w3.org/2000/svg" viewBox="233 274 100 100"><defs><style>.a{fill:none;}.b{stroke:rgba(0,0,0,0);stroke-width:1px;}</style></defs><g transform="translate(233 274)"><rect class="a" width="100" height="100"/><path class="b" d="M62.942,12.1a1.266,1.266,0,0,1-1.24.8H55.138V41.782A1.251,1.251,0,0,1,53.825,43.1H40.7a1.251,1.251,0,0,1-1.313-1.313V19.462H23.628v22.32A1.251,1.251,0,0,1,22.315,43.1H9.185a1.251,1.251,0,0,1-1.313-1.313V12.9H1.308a1.266,1.266,0,0,1-1.24-.8A1.581,1.581,0,0,1,.36,10.637l30.2-30.2a1.185,1.185,0,0,1,1.9,0l30.2,30.2A1.581,1.581,0,0,1,62.942,12.1Z" transform="translate(18.495 38.905)"/></g></svg>