<svg xmlns="http://www.w3.org/2000/svg" viewBox="403 -262 100 100"><defs><style>.a{fill:none;}</style></defs><g transform="translate(403 -262)"><rect class="a" width="100" height="100"/><rect class="a" width="100" height="100"/><g transform="translate(16.799 13.888)"><g transform="translate(0 52.024)"><path d="M0,47.186A1.381,1.381,0,0,1,1.486,45.7h4.8c3.888,0,6.289,1.372,7.318,4.459a17.377,17.377,0,0,1,.572,5.26,17.926,17.926,0,0,1-.572,5.26c-1.029,3.087-3.43,4.459-7.318,4.459h-4.8A1.381,1.381,0,0,1,0,63.651ZM3.544,62.05H6.06c2.287,0,3.659-.8,4.231-2.63a10.715,10.715,0,0,0,.457-4A16.321,16.321,0,0,0,10.4,51.3c-.572-1.829-2.058-2.63-4.231-2.63H3.544c-.114,0-.114.114-.114.229V61.936C3.316,62.05,3.43,62.05,3.544,62.05Z" transform="translate(0 -45.471)"/><path d="M18.787,52.244h0A4,4,0,0,1,22.332,50.3a3.5,3.5,0,0,1,1.715.343,1.6,1.6,0,0,1,.915,1.258,1.5,1.5,0,0,1-1.6,1.6,1.45,1.45,0,0,1-.686-.114,5.9,5.9,0,0,0-1.258-.229c-1.715,0-2.515,1.372-2.515,3.43v6.06a1.594,1.594,0,0,1-1.6,1.715,1.534,1.534,0,0,1-1.6-1.715v-10.4a1.594,1.594,0,0,1,1.6-1.715,1.512,1.512,0,0,1,1.486,1.715Z" transform="translate(2.251 -44.812)"/><path d="M29,47.558A1.81,1.81,0,0,1,30.829,45.5c1.029,0,1.486.572,1.944,1.715l4.8,10.748h.114l4.688-10.748c.457-1.143.915-1.715,1.944-1.715a1.81,1.81,0,0,1,1.829,2.058V63.565a1.473,1.473,0,0,1-1.486,1.6,1.5,1.5,0,0,1-1.6-1.6V52.932h-.114l-3.544,8c-.572,1.143-1.029,1.486-1.829,1.486s-1.372-.343-1.829-1.486l-3.545-8h-.114V63.565a1.473,1.473,0,0,1-1.486,1.6,1.5,1.5,0,0,1-1.6-1.6Z" transform="translate(4.158 -45.5)"/><path d="M47.757,60.919A12.861,12.861,0,0,1,47.3,57.6a9.966,9.966,0,0,1,.457-3.43,5.516,5.516,0,0,1,5.6-3.773c2.858,0,4.917,1.486,5.6,3.773a13.647,13.647,0,0,1,.457,3.316,1.026,1.026,0,0,1-1.143,1.143H50.616c-.114,0-.229,0-.229.114a3.339,3.339,0,0,0,.229,1.029A2.914,2.914,0,0,0,53.7,61.834a5,5,0,0,0,2.858-.915,2.031,2.031,0,0,1,1.143-.457,1.321,1.321,0,0,1,1.372,1.372,1.434,1.434,0,0,1-.686,1.258,7.258,7.258,0,0,1-4.917,1.6C50.5,64.692,48.443,63.32,47.757,60.919Zm8.232-6.06a2.526,2.526,0,0,0-2.63-1.715,2.933,2.933,0,0,0-2.744,1.715A3.383,3.383,0,0,0,50.387,56c0,.114,0,.114.229.114H55.99A.112.112,0,0,0,56.1,56,1.881,1.881,0,0,0,55.99,54.859Z" transform="translate(6.782 -44.797)"/></g><g transform="translate(12.349)"><path d="M31.109,23.744A38.087,38.087,0,0,1,36.6,28.089a7.173,7.173,0,0,0-.8,5.717,6.835,6.835,0,0,0,5.26,4.8A7.033,7.033,0,1,0,38.884,25.8a46.784,46.784,0,0,0-4.8-4h-.114a19.4,19.4,0,0,0-2.744,1.6C31,23.515,31,23.744,31.109,23.744ZM43.344,35.521a3.89,3.89,0,0,1-4.574-4.574,3.788,3.788,0,0,1,2.973-2.973,3.89,3.89,0,0,1,4.574,4.574A3.646,3.646,0,0,1,43.344,35.521Z" transform="translate(-7.899 3.126)"/><path d="M30.009,20.81a44.261,44.261,0,0,1-8.918-6.174,6.854,6.854,0,0,1-2.058-3.773,6.855,6.855,0,0,1,1.829-5.831A6.51,6.51,0,0,1,26.236,3.2a7.608,7.608,0,0,1,3.316,1.372,6.523,6.523,0,0,1,1.258,1.258,1.58,1.58,0,0,0,1.258.686h0a1.435,1.435,0,0,0,1.258-.686A8.315,8.315,0,0,1,34.239,4.8a6.273,6.273,0,0,1,3.544-1.6,6.883,6.883,0,0,1,5.488,1.829A6.747,6.747,0,0,1,45.1,10.862a6.854,6.854,0,0,1-2.058,3.773,50.474,50.474,0,0,1-10.519,7.2l-.229.114-.114.114c-1.715,1.029-2.172,1.258-3.2,1.829a36.729,36.729,0,0,0-5.831,4.231A7.626,7.626,0,0,0,17.66,27.1a8.771,8.771,0,0,0-3.888,2.172l-2.515,2.515a1.658,1.658,0,0,0,0,2.287l.114.114h0l1.486,1.486A1.468,1.468,0,0,0,14,36.131a1.617,1.617,0,0,0,1.143-2.744l-.457-.457,1.486-1.486a4.8,4.8,0,0,1,1.6-1.029,4.344,4.344,0,0,1,4.8,1.6,4.667,4.667,0,0,1-.572,5.374l-1.372,1.372-.343-.343h0l-.114-.114a1.658,1.658,0,0,0-2.287,0,1.737,1.737,0,0,0,0,2.287l1.6,1.6a1.658,1.658,0,0,0,2.287,0l2.63-2.63a7.272,7.272,0,0,0,1.029-9.033,35.763,35.763,0,0,1,6.86-4.574c1.258-.686,2.172-1.258,3.2-1.829,3.773-2.172,7.089-4.116,10.062-7.089a10.557,10.557,0,0,0,2.858-5.031A9.738,9.738,0,0,0,38.927.229a8.981,8.981,0,0,0-6.86,2.287A9.892,9.892,0,0,0,25.55,0a9.6,9.6,0,0,0-6.86,2.858,9.642,9.642,0,0,0-2.4,9.833,9.9,9.9,0,0,0,2.515,4,43.239,43.239,0,0,0,8.461,6.174h.229c1.143-.8,2.172-1.372,2.63-1.715A.42.42,0,0,0,30.009,20.81ZM18.8,37.96Z" transform="translate(-10.8)"/></g></g></g></svg>