<svg xmlns="http://www.w3.org/2000/svg" viewBox="403 408 100 100">
  <defs>
    <style>
      .cls-1 {
        fill: none;
      }

      .cls-2 {
        stroke: rgba(0,0,0,0);
        stroke-width: 1px;
      }
    </style>
  </defs>
  <g id="group-20" transform="translate(403 408)">
    <g id="group-19">
      <g id="group-11">
        <g id="group-5">
          <rect id="rectangle-1" class="cls-1" width="100" height="100"/>
        </g>
        <path id="signout" class="cls-2" d="M50.891-50.767V5.954a1.175,1.175,0,0,1-1.233,1.233H7.733A1.175,1.175,0,0,1,6.5,5.954V-17.474H17.6v9.248a1.189,1.189,0,0,0,.754,1.165,1.308,1.308,0,0,0,1.37-.274l15-15.071-15-15.071a1.178,1.178,0,0,0-1.37-.206,1,1,0,0,0-.754,1.1v9.248H6.5V-50.767a1.2,1.2,0,0,1,.343-.891A1.2,1.2,0,0,1,7.733-52H49.658a1.2,1.2,0,0,1,.891.343A1.2,1.2,0,0,1,50.891-50.767Z" transform="translate(21.305 72.406)"/>
      </g>
      <g id="group-11-2" data-name="group-11">
        <g id="group-5-2" data-name="group-5">
          <rect id="rectangle-1-2" data-name="rectangle-1" class="cls-1" width="100" height="100"/>
        </g>
      </g>
      <g id="group-11-3" data-name="group-11">
        <g id="group-5-3" data-name="group-5">
          <rect id="rectangle-1-3" data-name="rectangle-1" class="cls-1" width="100" height="100"/>
        </g>
      </g>
      <g id="group-11-4" data-name="group-11">
        <g id="group-5-4" data-name="group-5">
          <rect id="rectangle-1-4" data-name="rectangle-1" class="cls-1" width="100" height="100"/>
        </g>
      </g>
      <g id="group-11-5" data-name="group-11">
        <g id="group-5-5" data-name="group-5">
          <rect id="rectangle-1-5" data-name="rectangle-1" class="cls-1" width="100" height="100"/>
        </g>
      </g>
      <g id="group-11-6" data-name="group-11">
        <g id="group-5-6" data-name="group-5">
          <rect id="rectangle-1-6" data-name="rectangle-1" class="cls-1" width="100" height="100"/>
        </g>
      </g>
      <g id="group-11-7" data-name="group-11">
        <g id="group-5-7" data-name="group-5">
          <rect id="rectangle-1-7" data-name="rectangle-1" class="cls-1" width="100" height="100"/>
        </g>
      </g>
      <g id="group-11-8" data-name="group-11">
        <g id="group-5-8" data-name="group-5">
          <rect id="rectangle-1-8" data-name="rectangle-1" class="cls-1" width="100" height="100"/>
        </g>
      </g>
    </g>
  </g>
</svg>
