<svg xmlns="http://www.w3.org/2000/svg" viewBox="1593 140 100 100"><defs><style>.a{fill:none;}.b{stroke:rgba(0,0,0,0);stroke-width:1px;}</style></defs><g transform="translate(1593 140)"><rect class="a" width="100" height="100"/><path class="b" d="M-1561.174-73.423h-5.439a1.334,1.334,0,0,1-.982-.378,1.334,1.334,0,0,1-.378-.982V-85.962a25.422,25.422,0,0,1-15.521-8.724,25.025,25.025,0,0,1-6.232-16.806,3.938,3.938,0,0,1,1.209-2.87,3.938,3.938,0,0,1,2.87-1.209,3.938,3.938,0,0,1,2.87,1.209,3.935,3.935,0,0,1,1.209,2.87,17.1,17.1,0,0,0,5.174,12.5,17.1,17.1,0,0,0,12.5,5.174,19.185,19.185,0,0,0,2.953-.224l5.472,7a27.09,27.09,0,0,1-4.346,1.075v11.179a1.337,1.337,0,0,1-.377.982A1.334,1.334,0,0,1-1561.174-73.423Zm12.864-17.446h0l-5.019-6.424a19.3,19.3,0,0,0,1.936-1.7,17.1,17.1,0,0,0,5.174-12.5,3.938,3.938,0,0,1,1.208-2.87,3.938,3.938,0,0,1,2.87-1.209,3.938,3.938,0,0,1,2.87,1.209,3.935,3.935,0,0,1,1.209,2.87,25.028,25.028,0,0,1-6.231,16.806,27.476,27.476,0,0,1-4.016,3.816Zm-16.743-8.433h0a11.748,11.748,0,0,1-7.526-3.5,11.865,11.865,0,0,1-3.55-8.686v-1.99l11.077,14.178a0,0,0,0,1,0,0Zm8.367-2.289h0l-19.442-24.885a11.837,11.837,0,0,1,3.587-8.619,11.838,11.838,0,0,1,8.648-3.587,11.839,11.839,0,0,1,8.649,3.587,11.84,11.84,0,0,1,3.587,8.648v14.955a11.837,11.837,0,0,1-3.587,8.648,13.389,13.389,0,0,1-1.441,1.252Z" transform="translate(1614.394 155.613)"/><rect width="69" height="5" rx="5" ry="5" transform="translate(30.835 25.533) rotate(52)"/></g></svg>