<svg xmlns="http://www.w3.org/2000/svg" viewBox="233 6 100 100"><defs><style>.a{fill:none;}</style></defs><g transform="translate(233 6)"><rect class="a" width="100" height="100"/><path d="M0,0H23a0,0,0,0,1,0,0V57.5A11.5,11.5,0,0,1,11.5,69h0A11.5,11.5,0,0,1,0,57.5V0A0,0,0,0,1,0,0Z" transform="translate(39 16)"/><path class="a" d="M0,0H23a0,0,0,0,1,0,0V51.5A11.5,11.5,0,0,1,11.5,63h0A11.5,11.5,0,0,1,0,51.5V0A0,0,0,0,1,0,0Z" transform="translate(39 19)"/><path class="a" d="M0,0H23a0,0,0,0,1,0,0V51.5A11.5,11.5,0,0,1,11.5,63h0A11.5,11.5,0,0,1,0,51.5V0A0,0,0,0,1,0,0Z" transform="translate(39 19)"/></g></svg>