<svg xmlns="http://www.w3.org/2000/svg" viewBox="573 140 100 100"><defs><style>.a{fill:none;}</style></defs><g transform="translate(573 140)"><rect class="a" width="100" height="100"/><path d="M14.449,43.8a3.258,3.258,0,0,0-2.407.932L1.015,55.756a3.294,3.294,0,0,0-1.01,2.6,4.064,4.064,0,0,0,1.242,2.757L5.169,65a16.271,16.271,0,0,0,9.318,4.349,19.891,19.891,0,0,0,3.029.233h.311q7.882,0,16.832-4.6A71.717,71.717,0,0,0,52.072,52.028,70.387,70.387,0,0,0,65.079,34.5q4.582-9.027,4.5-16.987a19.89,19.89,0,0,0-.233-3.029,15.674,15.674,0,0,0-1.087-4.193,16.365,16.365,0,0,0-3.3-5.2L61.119,1.242A3.964,3.964,0,0,0,58.362,0,3.464,3.464,0,0,0,55.8.971L44.734,12.036a3.161,3.161,0,0,0-.912,2.6,4.046,4.046,0,0,0,1.184,2.718l8.581,8.581-1.242,2.446Q50.83,31.1,49.917,32.634T46.87,37.022a51.706,51.706,0,0,1-4.543,5.3,47.477,47.477,0,0,1-5.222,4.5q-2.815,2.1-4.465,3.087T28.5,52.261L25.981,53.62,17.361,45A3.967,3.967,0,0,0,14.449,43.8Z" transform="translate(15.306 15.627)"/></g></svg>