<svg xmlns="http://www.w3.org/2000/svg" viewBox="1083 274 100 100"><defs><style>.a{fill:none;}.b{stroke:rgba(0,0,0,0);stroke-width:1px;}</style></defs><g transform="translate(1083 274)"><rect class="a" width="100" height="100"/><rect class="a" width="100" height="100"/><rect class="a" width="100" height="100"/><rect class="a" width="100" height="100"/><rect class="a" width="100" height="100"/><rect class="a" width="100" height="100"/><rect class="a" width="100" height="100"/><rect class="a" width="100" height="100"/><path class="b" d="M65.414,41.326v2.726a1.3,1.3,0,0,1-1.363,1.363H1.363a1.331,1.331,0,0,1-.984-.379A1.331,1.331,0,0,1,0,44.051V41.326a8.835,8.835,0,0,1,2.536-6.4A17.906,17.906,0,0,1,8.669,30.84q3.6-1.476,7.193-2.8a20.53,20.53,0,0,0,6.133-3.445,6.413,6.413,0,0,0,2.536-5.073q-.3-.3-.871-.946A27.01,27.01,0,0,1,21.691,15.7a36.612,36.612,0,0,1-2.5-4.732,35.118,35.118,0,0,1-1.968-6.473,37.925,37.925,0,0,1-.871-8.139,15.745,15.745,0,0,1,4.808-11.546A15.745,15.745,0,0,1,32.707-20a15.745,15.745,0,0,1,11.546,4.808A15.745,15.745,0,0,1,49.061-3.646a39.038,39.038,0,0,1-.833,8.1A31,31,0,0,1,46.184,11a48.239,48.239,0,0,1-2.423,4.618,24.335,24.335,0,0,1-2.044,2.991l-.833.909a6.413,6.413,0,0,0,2.536,5.073,20.53,20.53,0,0,0,6.133,3.445q3.6,1.325,7.193,2.8a17.906,17.906,0,0,1,6.133,4.088A8.835,8.835,0,0,1,65.414,41.326Z" transform="translate(17.586 37)"/></g></svg>