<svg xmlns="http://www.w3.org/2000/svg" viewBox="573 408 100 100">
  <defs>
    <style>
      .cls-1 {
        fill: none;
      }

      .cls-2 {
        stroke: rgba(0,0,0,0);
        stroke-width: 1px;
      }
    </style>
  </defs>
  <g id="group-21" transform="translate(573 408)">
    <g id="group-20">
      <g id="group-19">
        <g id="group-11">
          <g id="group-5">
            <rect id="rectangle-1" class="cls-1" width="100" height="100"/>
          </g>
          <path id="tag" class="cls-2" d="M1.15-25.667A3.774,3.774,0,0,1,0-28.436,3.774,3.774,0,0,1,1.15-31.2L34.587-64.64A1.177,1.177,0,0,1,35.45-65H58.244a3.733,3.733,0,0,1,2.732,1.15,3.733,3.733,0,0,1,1.151,2.732v22.794a1.177,1.177,0,0,1-.36.863L28.331-4.024a3.774,3.774,0,0,1-2.768,1.15,3.774,3.774,0,0,1-2.768-1.15ZM42.712-51.41a5.623,5.623,0,0,0,1.69,4.135,5.623,5.623,0,0,0,4.135,1.69,5.623,5.623,0,0,0,4.135-1.69,5.623,5.623,0,0,0,1.69-4.135,5.623,5.623,0,0,0-1.69-4.135,5.624,5.624,0,0,0-4.135-1.69,5.623,5.623,0,0,0-4.135,1.69A5.623,5.623,0,0,0,42.712-51.41Z" transform="translate(19.271 84.602)"/>
        </g>
        <g id="group-11-2" data-name="group-11">
          <g id="group-5-2" data-name="group-5">
            <rect id="rectangle-1-2" data-name="rectangle-1" class="cls-1" width="100" height="100"/>
          </g>
        </g>
        <g id="group-11-3" data-name="group-11">
          <g id="group-5-3" data-name="group-5">
            <rect id="rectangle-1-3" data-name="rectangle-1" class="cls-1" width="100" height="100"/>
          </g>
        </g>
        <g id="group-11-4" data-name="group-11">
          <g id="group-5-4" data-name="group-5">
            <rect id="rectangle-1-4" data-name="rectangle-1" class="cls-1" width="100" height="100"/>
          </g>
        </g>
        <g id="group-11-5" data-name="group-11">
          <g id="group-5-5" data-name="group-5">
            <rect id="rectangle-1-5" data-name="rectangle-1" class="cls-1" width="100" height="100"/>
          </g>
        </g>
        <g id="group-11-6" data-name="group-11">
          <g id="group-5-6" data-name="group-5">
            <rect id="rectangle-1-6" data-name="rectangle-1" class="cls-1" width="100" height="100"/>
          </g>
        </g>
        <g id="group-11-7" data-name="group-11">
          <g id="group-5-7" data-name="group-5">
            <rect id="rectangle-1-7" data-name="rectangle-1" class="cls-1" width="100" height="100"/>
          </g>
        </g>
        <g id="group-11-8" data-name="group-11">
          <g id="group-5-8" data-name="group-5">
            <rect id="rectangle-1-8" data-name="rectangle-1" class="cls-1" width="100" height="100"/>
          </g>
        </g>
      </g>
    </g>
  </g>
</svg>
