<svg xmlns="http://www.w3.org/2000/svg" viewBox="1253 -128 100 100"><defs><style>.a{fill:none;}.b{stroke:rgba(0,0,0,0);stroke-width:1px;}</style></defs><g transform="translate(1253 -128)"><rect class="a" width="100" height="100"/><rect class="a" width="100" height="100"/><path class="b" d="M32.5-52a18.784,18.784,0,0,1,13.782,5.718A18.784,18.784,0,0,1,52-32.5a18.784,18.784,0,0,1-5.718,13.782A18.784,18.784,0,0,1,32.5-13a18.9,18.9,0,0,1-10.412-3.009L7.4-1.264A4.179,4.179,0,0,1,4.333,0,4.179,4.179,0,0,1,1.264-1.264,4.179,4.179,0,0,1,0-4.333,4.179,4.179,0,0,1,1.264-7.4L16.009-22.088A18.9,18.9,0,0,1,13-32.5a18.784,18.784,0,0,1,5.718-13.782A18.784,18.784,0,0,1,32.5-52Zm0,32.5a12.516,12.516,0,0,0,9.178-3.822A12.516,12.516,0,0,0,45.5-32.5a12.516,12.516,0,0,0-3.822-9.178A12.516,12.516,0,0,0,32.5-45.5a12.516,12.516,0,0,0-9.178,3.822A12.516,12.516,0,0,0,19.5-32.5a12.516,12.516,0,0,0,3.822,9.178A12.516,12.516,0,0,0,32.5-19.5Z" transform="translate(22 75)"/></g></svg>