<svg xmlns="http://www.w3.org/2000/svg" viewBox="743 274 100 100"><defs><style>.a{fill:none;}.b{stroke:rgba(0,0,0,0);stroke-width:1px;}</style></defs><g transform="translate(743 274)"><rect class="a" width="100" height="100"/><path class="b" d="M54.377,15.6,60.5,20.918a1.048,1.048,0,0,1,.369,1.4A29.739,29.739,0,0,1,54.82,32.8a1.073,1.073,0,0,1-1.4.369L45.74,30.514A24.3,24.3,0,0,1,39.392,34.2l-1.55,7.972a1.154,1.154,0,0,1-1.033,1.033,33.121,33.121,0,0,1-6.053.591A33.12,33.12,0,0,1,24.7,43.21a1.154,1.154,0,0,1-1.033-1.033L22.12,34.2a22.4,22.4,0,0,1-6.348-3.691L8.1,33.172a1.073,1.073,0,0,1-1.4-.369A29.739,29.739,0,0,1,.64,22.321a1.048,1.048,0,0,1,.369-1.4L7.136,15.6a20,20,0,0,1-.3-3.691,20,20,0,0,1,.3-3.691L1.009,2.908a1.048,1.048,0,0,1-.369-1.4A29.739,29.739,0,0,1,6.693-8.976a1.073,1.073,0,0,1,1.4-.369l7.677,2.657a22.4,22.4,0,0,1,6.348-3.691l1.55-7.972A1.154,1.154,0,0,1,24.7-19.384a29.509,29.509,0,0,1,12.106,0,1.154,1.154,0,0,1,1.033,1.033l1.55,7.972A24.3,24.3,0,0,1,45.74-6.688l7.677-2.657a1.073,1.073,0,0,1,1.4.369A29.739,29.739,0,0,1,60.872,1.505a1.048,1.048,0,0,1-.369,1.4L54.377,8.222a20,20,0,0,1,.3,3.691A20,20,0,0,1,54.377,15.6ZM30.756,23.871a11.519,11.519,0,0,0,8.452-3.506,11.519,11.519,0,0,0,3.506-8.452,11.519,11.519,0,0,0-3.506-8.452A11.519,11.519,0,0,0,30.756-.045,11.519,11.519,0,0,0,22.3,3.461,11.519,11.519,0,0,0,18.8,11.913,11.545,11.545,0,0,0,22.268,20.4,11.545,11.545,0,0,0,30.756,23.871Z" transform="translate(19.244 38.199)"/></g></svg>