<svg xmlns="http://www.w3.org/2000/svg" viewBox="403 408 100 100">
  <defs>
    <style>
      .cls-1 {
        fill: none;
      }

      .cls-2 {
        stroke: rgba(0,0,0,0);
        stroke-width: 1px;
      }
    </style>
  </defs>
  <g id="group-20" transform="translate(403 408)">
    <g id="group-19">
      <g id="group-11">
        <g id="group-5">
          <rect id="rectangle-1" class="cls-1" width="100" height="100"/>
        </g>
        <path id="signout" class="cls-2" d="M56.161-50.621V12.835a1.314,1.314,0,0,1-1.379,1.379H7.879A1.314,1.314,0,0,1,6.5,12.835v-26.21H18.915V-3.029a1.33,1.33,0,0,0,.843,1.3,1.464,1.464,0,0,0,1.533-.307l16.784-16.86L21.291-35.753a1.318,1.318,0,0,0-1.533-.23,1.12,1.12,0,0,0-.843,1.226V-24.41H6.5v-26.21a1.348,1.348,0,0,1,.383-1,1.348,1.348,0,0,1,1-.383h46.9a1.348,1.348,0,0,1,1,.383A1.348,1.348,0,0,1,56.161-50.621Z" transform="translate(18.669 68.893)"/>
      </g>
      <g id="group-11-2" data-name="group-11">
        <g id="group-5-2" data-name="group-5">
          <rect id="rectangle-1-2" data-name="rectangle-1" class="cls-1" width="100" height="100"/>
        </g>
      </g>
      <g id="group-11-3" data-name="group-11">
        <g id="group-5-3" data-name="group-5">
          <rect id="rectangle-1-3" data-name="rectangle-1" class="cls-1" width="100" height="100"/>
        </g>
      </g>
      <g id="group-11-4" data-name="group-11">
        <g id="group-5-4" data-name="group-5">
          <rect id="rectangle-1-4" data-name="rectangle-1" class="cls-1" width="100" height="100"/>
        </g>
      </g>
      <g id="group-11-5" data-name="group-11">
        <g id="group-5-5" data-name="group-5">
          <rect id="rectangle-1-5" data-name="rectangle-1" class="cls-1" width="100" height="100"/>
        </g>
      </g>
      <g id="group-11-6" data-name="group-11">
        <g id="group-5-6" data-name="group-5">
          <rect id="rectangle-1-6" data-name="rectangle-1" class="cls-1" width="100" height="100"/>
        </g>
      </g>
      <g id="group-11-7" data-name="group-11">
        <g id="group-5-7" data-name="group-5">
          <rect id="rectangle-1-7" data-name="rectangle-1" class="cls-1" width="100" height="100"/>
        </g>
      </g>
      <g id="group-11-8" data-name="group-11">
        <g id="group-5-8" data-name="group-5">
          <rect id="rectangle-1-8" data-name="rectangle-1" class="cls-1" width="100" height="100"/>
        </g>
      </g>
    </g>
  </g>
</svg>
