<svg xmlns="http://www.w3.org/2000/svg" viewBox="743 140 100 100"><defs><style>.a{fill:none;}</style></defs><g transform="translate(743 140)"><g transform="translate(100.316 241.335)"><path d="M13.082,38.208H2.282a2.178,2.178,0,0,1-1.593-.673,2.175,2.175,0,0,1-.673-1.593V17.81a2.175,2.175,0,0,1,.673-1.593,2.175,2.175,0,0,1,1.593-.673h10.8L31.745,0V53.753ZM56.766,51.745,52.38,47.358a1.336,1.336,0,0,1-.231-.347.933.933,0,0,1-.115-.4.873.873,0,0,1,.347-.693,25.67,25.67,0,0,0,7.734-18.758A25.666,25.666,0,0,0,52.38,8.4a.777.777,0,0,1-.347-.693.937.937,0,0,1,.115-.4,1.352,1.352,0,0,1,.231-.346l4.386-4.386a.925.925,0,0,1,1.444,0,34.353,34.353,0,0,1,9.09,15.64,34.016,34.016,0,0,1,0,17.892,34.351,34.351,0,0,1-9.09,15.641,1.106,1.106,0,0,1-.736.346A1.009,1.009,0,0,1,56.766,51.745Zm-9.581-9.523L42.8,37.835a1.337,1.337,0,0,1-.23-.347.986.986,0,0,1-.058-.4,1.015,1.015,0,0,1,.288-.75,12.509,12.509,0,0,0,3.81-9.177,12.507,12.507,0,0,0-3.81-9.176,1.322,1.322,0,0,1-.288-.751.991.991,0,0,1,.058-.4,1.33,1.33,0,0,1,.23-.346l4.387-4.387a.937.937,0,0,1,1.5,0,20.519,20.519,0,0,1,6.233,15.063,20.521,20.521,0,0,1-6.233,15.064.937.937,0,0,1-1.5,0Z" transform="translate(-85.813 -218.386)"/></g><rect class="a" width="100" height="100"/></g></svg>
