<svg xmlns="http://www.w3.org/2000/svg" viewBox="573 -128 100 100"><defs><style>.a{fill:none;}</style></defs><g transform="translate(573 -128)"><rect class="a" width="100" height="100"/><path class="a" d="M0,0H23a0,0,0,0,1,0,0V51.5A11.5,11.5,0,0,1,11.5,63h0A11.5,11.5,0,0,1,0,51.5V0A0,0,0,0,1,0,0Z" transform="translate(39 19)"/><path class="a" d="M0,0H23a0,0,0,0,1,0,0V51.5A11.5,11.5,0,0,1,11.5,63h0A11.5,11.5,0,0,1,0,51.5V0A0,0,0,0,1,0,0Z" transform="translate(39 19)"/><path d="M-547.7,195.476l-22.118-22.118a4.5,4.5,0,0,1,0-6.364,4.5,4.5,0,0,1,6.364,0l18.161,18.161,33.33-53.339a4.5,4.5,0,0,1,6.2-1.431,4.5,4.5,0,0,1,1.431,6.2l-36.183,57.9a4.507,4.507,0,0,1-.746.907l-.077.079a4.486,4.486,0,0,1-3.182,1.318A4.484,4.484,0,0,1-547.7,195.476Z" transform="translate(590.33 -113.363)"/><rect width="40.28" height="9" rx="5" ry="5" transform="translate(23.694 50.448) rotate(45)"/></g></svg>