<svg xmlns="http://www.w3.org/2000/svg" viewBox="1423 140 100 100"><defs><style>.a{fill:none;}.b{stroke:rgba(0,0,0,0);stroke-width:1px;}</style></defs><g transform="translate(1423 140)"><rect class="a" width="100" height="100"/><path class="b" d="M19.325-27.809V-42.764a11.787,11.787,0,0,1,3.588-8.648A11.787,11.787,0,0,1,31.561-55a11.787,11.787,0,0,1,8.648,3.588A11.787,11.787,0,0,1,43.8-42.764v14.955a11.787,11.787,0,0,1-3.588,8.648,11.787,11.787,0,0,1-8.648,3.588,11.814,11.814,0,0,1-8.686-3.55A11.814,11.814,0,0,1,19.325-27.809Zm38.068,0A24.917,24.917,0,0,1,51.161-11,25.308,25.308,0,0,1,35.64-2.279V8.9a1.3,1.3,0,0,1-1.36,1.36H28.842a1.3,1.3,0,0,1-1.36-1.36V-2.279A25.308,25.308,0,0,1,11.961-11,24.917,24.917,0,0,1,5.729-27.809a3.921,3.921,0,0,1,1.209-2.87,3.921,3.921,0,0,1,2.87-1.208,3.921,3.921,0,0,1,2.87,1.208,3.921,3.921,0,0,1,1.209,2.87,17.031,17.031,0,0,0,5.174,12.5,17.031,17.031,0,0,0,12.5,5.174,17.031,17.031,0,0,0,12.5-5.174,17.031,17.031,0,0,0,5.174-12.5,3.921,3.921,0,0,1,1.209-2.87,3.921,3.921,0,0,1,2.87-1.208,3.921,3.921,0,0,1,2.87,1.208A3.921,3.921,0,0,1,57.393-27.809Z" transform="translate(18.939 71.931)"/></g></svg>