<svg xmlns="http://www.w3.org/2000/svg" viewBox="913 140 100 100"><defs><style>.a{fill:none;}.b{stroke:rgba(0,0,0,0);stroke-width:1px;}</style></defs><g transform="translate(913 140)"><rect class="a" width="100" height="100"/><g transform="translate(-1 -2)"><path class="b" d="M-911.768-80.883h0a1.208,1.208,0,0,1-.889-.342,1.205,1.205,0,0,1-.342-.889v-2.463a8.019,8.019,0,0,1,2.291-5.782,16.267,16.267,0,0,1,5.542-3.7c2.169-.89,4.356-1.742,6.5-2.532a18.649,18.649,0,0,0,5.542-3.113,5.819,5.819,0,0,0,2.292-4.584q-.274-.274-.788-.856a24.522,24.522,0,0,1-1.778-2.6,33.237,33.237,0,0,1-2.258-4.276,31.916,31.916,0,0,1-1.779-5.85,34.434,34.434,0,0,1-.787-7.356,14.288,14.288,0,0,1,4.345-10.435A14.29,14.29,0,0,1-883.442-140a14.291,14.291,0,0,1,10.435,4.345,14.288,14.288,0,0,1,4.345,10.435,35.487,35.487,0,0,1-.752,7.322,28.179,28.179,0,0,1-1.848,5.918,43.82,43.82,0,0,1-2.19,4.173,22.076,22.076,0,0,1-1.848,2.7l-.752.822A5.82,5.82,0,0,0-873.76-99.7a18.4,18.4,0,0,0,5.176,2.975,22.359,22.359,0,0,1-1.739,1.982c-.981.891-1.748,1.577-2.7,2.289a22.774,22.774,0,0,1-1.891,1.365c-.17.111-.3.2-.4.27-.318.159-.714.4-1.113.635l-2.974-2.924a6.749,6.749,0,0,0-4.66-1.962,6.056,6.056,0,0,0-4.333,1.717l-6.54,6.54a6.184,6.184,0,0,0-1.8,4.659,6.217,6.217,0,0,0,.107.877Z" transform="translate(933.734 163.148)"/><path d="M8.585,26.024a1.936,1.936,0,0,0-1.43.554L.6,33.129A1.957,1.957,0,0,0,0,34.675a2.415,2.415,0,0,0,.738,1.638l2.33,2.307A9.668,9.668,0,0,0,8.608,41.2a11.818,11.818,0,0,0,1.8.138h.185a21.983,21.983,0,0,0,10-2.734,42.613,42.613,0,0,0,10.347-7.694A41.823,41.823,0,0,0,38.669,20.5,21.921,21.921,0,0,0,41.346,10.4a11.818,11.818,0,0,0-.138-1.8,9.313,9.313,0,0,0-.646-2.492A9.724,9.724,0,0,0,38.6,3.022L36.316.738A2.355,2.355,0,0,0,34.678,0a2.058,2.058,0,0,0-1.523.577L26.58,7.152A1.878,1.878,0,0,0,26.038,8.7a2.4,2.4,0,0,0,.7,1.615l5.1,5.1L31.1,16.865q-.9,1.615-1.442,2.526T27.849,22a30.723,30.723,0,0,1-2.7,3.149,28.212,28.212,0,0,1-3.1,2.676q-1.673,1.246-2.653,1.834t-2.457,1.4l-1.5.807-5.122-5.122A2.357,2.357,0,0,0,8.585,26.024Z" transform="translate(40.932 46.194)"/></g></g></svg>